<svg width="18" height="22" viewBox="0 0 18 22" fill="none" xmlns="http://www.w3.org/2000/svg">
<path d="M15.3327 11.1491C15.2564 11.0729 15.166 11.0127 15.0665 10.9717C14.967 10.9307 14.8605 10.9098 14.753 10.9102C14.6455 10.9105 14.5391 10.9322 14.4399 10.9739C14.3408 11.0156 14.2507 11.0765 14.175 11.1532C14.0992 11.2298 14.0393 11.3207 13.9985 11.4207C13.9577 11.5207 13.9369 11.6277 13.9373 11.7358C13.9376 11.8438 13.9592 11.9507 14.0007 12.0504C14.0422 12.15 14.1028 12.2405 14.1791 12.3166C14.8714 13.005 15.4209 13.8246 15.7959 14.7279C16.1709 15.6312 16.3639 16.6002 16.3636 17.579C16.3636 18.5821 13.4918 20.0457 9.00001 20.0457C4.50821 20.0457 1.63641 18.5821 1.63641 17.579C1.63511 16.6067 1.82448 15.6437 2.1937 14.7449C2.56292 13.8462 3.10475 13.0295 3.78822 12.3413C3.9406 12.1873 4.02614 11.9789 4.02614 11.7616C4.02614 11.5444 3.9406 11.336 3.78822 11.182C3.63492 11.0288 3.42755 10.9429 3.2114 10.9429C2.99525 10.9429 2.78788 11.0288 2.63458 11.182C1.79604 12.02 1.13137 13.0169 0.679131 14.115C0.226888 15.2131 -0.00393308 16.3905 5.07007e-05 17.579C5.07007e-05 20.2512 4.63912 21.6901 9.00001 21.6901C13.3609 21.6901 18 20.2512 18 17.579C18.0031 16.3828 17.7688 15.198 17.3108 14.094C16.8529 12.9899 16.1804 11.9888 15.3327 11.1491Z" fill="white"/>
<path d="M9.00007 11.8238C10.1328 11.8238 11.2401 11.4862 12.182 10.8538C13.1238 10.2214 13.8579 9.32246 14.2914 8.27075C14.7248 7.21904 14.8383 6.06177 14.6173 4.94529C14.3963 3.8288 13.8508 2.80324 13.0498 1.99829C12.2489 1.19335 11.2284 0.645179 10.1174 0.423096C9.00643 0.201013 7.85487 0.314994 6.80835 0.750626C5.76183 1.18626 4.86736 1.92397 4.23804 2.87049C3.60872 3.817 3.27283 4.9298 3.27283 6.06816C3.27283 7.59465 3.87623 9.05863 4.9503 10.138C6.02437 11.2174 7.48111 11.8238 9.00007 11.8238ZM9.00007 1.95698C9.80918 1.95698 10.6001 2.19809 11.2729 2.64983C11.9456 3.10158 12.4699 3.74366 12.7796 4.49488C13.0892 5.2461 13.1702 6.07272 13.0124 6.87021C12.8545 7.6677 12.4649 8.40024 11.8928 8.9752C11.3206 9.55016 10.5917 9.94171 9.79817 10.1003C9.00461 10.259 8.18207 10.1776 7.43456 9.86639C6.68705 9.55523 6.04814 9.02829 5.59862 8.35221C5.14911 7.67613 4.90918 6.88127 4.90918 6.06816C4.90918 4.9778 5.34019 3.93211 6.10738 3.16111C6.87457 2.39012 7.9151 1.95698 9.00007 1.95698Z" fill="white"/>
</svg>
