<svg width="137" height="125" viewBox="0 0 137 125" fill="none" xmlns="http://www.w3.org/2000/svg">
<circle cx="62.5" cy="62.5" r="62.5" fill="#B5B5B5"/>
<g clip-path="url(#clip0_2026_2538)">
<mask id="mask0_2026_2538" style="mask-type:alpha" maskUnits="userSpaceOnUse" x="35" y="35" width="56" height="56">
<rect x="35.937" y="35.9395" width="54.6875" height="54.6875" rx="1" fill="#D9D9D9"/>
</mask>
<g mask="url(#mask0_2026_2538)">
<rect x="35.937" y="35.9395" width="54.6875" height="54.6875" fill="#C9C7C7"/>
<path d="M51.562 45.7051C51.562 48.9411 48.9387 51.5645 45.7026 51.5645C42.4666 51.5645 39.8433 48.9411 39.8433 45.7051C39.8433 42.469 42.4666 39.8457 45.7026 39.8457C48.9387 39.8457 51.562 42.469 51.562 45.7051Z" fill="#A2A2A2"/>
<path d="M47.3974 69.602C48.5864 68.3049 50.6313 68.3049 51.8204 69.602L66.485 85.5998C68.2489 87.524 66.8839 90.627 64.2736 90.627H34.9442C32.3339 90.627 30.9689 87.524 32.7328 85.5998L47.3974 69.602Z" fill="#7A7A7A"/>
<path d="M74.648 58.2363C75.8474 56.797 78.0579 56.797 79.2573 58.2363L102.149 85.7064C103.777 87.6604 102.388 90.627 99.8444 90.627H54.0609C51.5174 90.627 50.1279 87.6604 51.7562 85.7064L74.648 58.2363Z" fill="#7A7A7A"/>
</g>
</g>
<circle cx="117" cy="105" r="20" fill="#0075FF"/>
<path fill-rule="evenodd" clip-rule="evenodd" d="M117.389 97C116.726 97 116.189 97.5373 116.189 98.2V103.801H110.589C109.926 103.801 109.389 104.338 109.389 105.001C109.389 105.664 109.926 106.201 110.589 106.201H116.189V111.8C116.189 112.463 116.726 113 117.389 113C118.052 113 118.589 112.463 118.589 111.8V106.201H124.189C124.852 106.201 125.389 105.664 125.389 105.001C125.389 104.338 124.852 103.801 124.189 103.801H118.589V98.2C118.589 97.5373 118.052 97 117.389 97Z" fill="white"/>
<defs>
<clipPath id="clip0_2026_2538">
<rect x="35.937" y="35.9395" width="54.6875" height="54.6875" rx="5" fill="white"/>
</clipPath>
</defs>
</svg>
