<svg width="56" height="56" viewBox="0 0 56 56" fill="none" xmlns="http://www.w3.org/2000/svg">
<g clip-path="url(#clip0_2026_2541)">
<mask id="mask0_2026_2541" style="mask-type:alpha" maskUnits="userSpaceOnUse" x="0" y="0" width="56" height="56">
<rect x="0.937012" y="0.939453" width="54.6875" height="54.6875" rx="1" fill="#D9D9D9"/>
</mask>
<g mask="url(#mask0_2026_2541)">
<rect x="0.937012" y="0.939453" width="54.6875" height="54.6875" fill="#C9C7C7"/>
<path d="M16.562 10.7051C16.562 13.9411 13.9387 16.5645 10.7026 16.5645C7.46659 16.5645 4.84326 13.9411 4.84326 10.7051C4.84326 7.46903 7.46659 4.8457 10.7026 4.8457C13.9387 4.8457 16.562 7.46903 16.562 10.7051Z" fill="#A2A2A2"/>
<path d="M12.3974 34.602C13.5864 33.3049 15.6313 33.3049 16.8204 34.602L31.485 50.5998C33.2489 52.524 31.8839 55.627 29.2736 55.627H-0.0557823C-2.6661 55.627 -4.0311 52.524 -2.26725 50.5998L12.3974 34.602Z" fill="#7A7A7A"/>
<path d="M39.648 23.2363C40.8474 21.797 43.0579 21.797 44.2573 23.2363L67.1491 50.7064C68.7774 52.6604 67.3879 55.627 64.8444 55.627H19.0609C16.5174 55.627 15.1279 52.6604 16.7562 50.7064L39.648 23.2363Z" fill="#7A7A7A"/>
</g>
</g>
<defs>
<clipPath id="clip0_2026_2541">
<rect x="0.937012" y="0.939453" width="54.6875" height="54.6875" rx="5" fill="white"/>
</clipPath>
</defs>
</svg>
