<svg width="22" height="14" viewBox="0 0 22 14" fill="none" xmlns="http://www.w3.org/2000/svg">
<path d="M14.8462 5.66667L19.6872 1.47111C19.7948 1.37799 19.9318 1.31459 20.0809 1.28892C20.23 1.26324 20.3846 1.27645 20.525 1.32686C20.6655 1.37727 20.7856 1.46262 20.8701 1.57215C20.9547 1.68167 20.9999 1.81045 21 1.94222V12.0578C20.9999 12.1895 20.9547 12.3183 20.8701 12.4279C20.7856 12.5374 20.6655 12.6227 20.525 12.6731C20.3846 12.7236 20.23 12.7368 20.0809 12.7111C19.9318 12.6854 19.7948 12.622 19.6872 12.5289L14.8462 8.33333M3.30769 13H12.5385C13.1505 13 13.7375 12.7893 14.1702 12.4142C14.603 12.0391 14.8462 11.5304 14.8462 11V3C14.8462 2.46957 14.603 1.96086 14.1702 1.58579C13.7375 1.21071 13.1505 1 12.5385 1H3.30769C2.69565 1 2.10868 1.21071 1.67591 1.58579C1.24313 1.96086 1 2.46957 1 3V11C1 11.5304 1.24313 12.0391 1.67591 12.4142C2.10868 12.7893 2.69565 13 3.30769 13Z" stroke="white" stroke-linecap="round"/>
</svg>
